<?xml version="1.0"?>
<svg xmlns="http://www.w3.org/2000/svg" xmlns:xlink="http://www.w3.org/1999/xlink" viewBox="0 0 538.900000 292.000000" width="269.450000mm" height="146.000000mm" version="1.1">
<a xlink:href="b0d-0x7f3bb41bab40.svg">
<rect x="1.000000" y="1.000000" width="537.900000" height="291.000000" rx="0" ry="0" style="stroke:none;fill:#cccccc;"/>
<rect x="0.000000" y="0.000000" width="537.900000" height="291.000000" rx="0" ry="0" style="stroke:none;fill:#ffffff;"/>
</a>
<text x="10.000000" y="7.000000" font-family="Arial" font-size="7"></text>
<rect x="234.450000" y="35.000000" width="24.000000" height="24.000000" rx="0" ry="0" style="stroke:none;fill:#cccccc;"/>
<rect x="233.450000" y="34.000000" width="24.000000" height="24.000000" rx="0" ry="0" style="stroke:none;fill:#f44800;"/>
<text x="245.450000" y="48.000000" font-family="Arial" font-size="7" text-anchor="middle" fill="#FFFFFF">1</text>
<circle cx="235.450000" cy="36.000000" r="1"/>
<line x1="224.450000" y1="25.000000" x2="224.450000" y2="67.000000"  style="stroke: black; stroke-linecap:round; stroke-width:0.25; stroke-dasharray:3,3;"/>
<line x1="224.450000" y1="67.000000" x2="266.450000" y2="67.000000"  style="stroke: black; stroke-linecap:round; stroke-width:0.25; stroke-dasharray:3,3;"/>
<line x1="266.450000" y1="67.000000" x2="266.450000" y2="25.000000"  style="stroke: black; stroke-linecap:round; stroke-width:0.25; stroke-dasharray:3,3;"/>
<line x1="224.450000" y1="25.000000" x2="229.450000" y2="25.000000"  style="stroke: black; stroke-linecap:round; stroke-width:0.25; stroke-dasharray:3,3;"/>
<line x1="239.125000" y1="25.000000" x2="266.450000" y2="25.000000"  style="stroke: black; stroke-linecap:round; stroke-width:0.25; stroke-dasharray:3,3;"/>
<text x="229.450000" y="27.000000" font-family="Arial" font-size="7">N</text>
<rect x="138.450000" y="77.000000" width="24.000000" height="24.000000" rx="0" ry="0" style="stroke:none;fill:#cccccc;"/>
<rect x="137.450000" y="76.000000" width="24.000000" height="24.000000" rx="0" ry="0" style="stroke:none;fill:#f44800;"/>
<text x="149.450000" y="90.000000" font-family="Arial" font-size="7" text-anchor="middle" fill="#FFFFFF">2</text>
<circle cx="139.450000" cy="78.000000" r="1"/>
<rect x="131.100000" y="119.000000" width="38.700000" height="24.000000" rx="0" ry="0" style="stroke:none;fill:#cccccc;"/>
<rect x="130.100000" y="118.000000" width="38.700000" height="24.000000" rx="0" ry="0" style="stroke:none;fill:#f44800;"/>
<text x="149.450000" y="132.000000" font-family="Arial" font-size="7" text-anchor="middle" fill="#FFFFFF">3.14159</text>
<circle cx="132.100000" cy="120.000000" r="1"/>
<line x1="121.100000" y1="109.000000" x2="121.100000" y2="151.000000"  style="stroke: black; stroke-linecap:round; stroke-width:0.25; stroke-dasharray:3,3;"/>
<line x1="121.100000" y1="151.000000" x2="177.800000" y2="151.000000"  style="stroke: black; stroke-linecap:round; stroke-width:0.25; stroke-dasharray:3,3;"/>
<line x1="177.800000" y1="151.000000" x2="177.800000" y2="109.000000"  style="stroke: black; stroke-linecap:round; stroke-width:0.25; stroke-dasharray:3,3;"/>
<line x1="121.100000" y1="109.000000" x2="126.100000" y2="109.000000"  style="stroke: black; stroke-linecap:round; stroke-width:0.25; stroke-dasharray:3,3;"/>
<line x1="139.000000" y1="109.000000" x2="177.800000" y2="109.000000"  style="stroke: black; stroke-linecap:round; stroke-width:0.25; stroke-dasharray:3,3;"/>
<text x="126.100000" y="111.000000" font-family="Arial" font-size="7">PI</text>
<rect x="195.800000" y="103.000000" width="24.000000" height="24.000000" rx="0" ry="0" style="stroke:none;fill:#cccccc;"/>
<rect x="194.800000" y="102.000000" width="24.000000" height="24.000000" rx="0" ry="0" style="stroke:none;fill:#4B71A1;"/>
<text x="206.800000" y="116.000000" font-family="Arial" font-size="7" text-anchor="middle" fill="#FFFFFF">*</text>
<circle cx="196.800000" cy="104.000000" r="1"/>
<line x1="191.800000" y1="109.000000" x2="194.800000" y2="110.000000"  transform="rotate(0.000000,194.800000,110.000000)" style="stroke: black; stroke-width:0.25;"/>
<line x1="191.800000" y1="111.000000" x2="194.800000" y2="110.000000"  transform="rotate(0.000000,194.800000,110.000000)" style="stroke: black; stroke-width:0.25;"/>
<line x1="191.800000" y1="117.000000" x2="194.800000" y2="118.000000"  transform="rotate(0.000000,194.800000,118.000000)" style="stroke: black; stroke-width:0.25;"/>
<line x1="191.800000" y1="119.000000" x2="194.800000" y2="118.000000"  transform="rotate(0.000000,194.800000,118.000000)" style="stroke: black; stroke-width:0.25;"/>
<rect x="35.000000" y="171.000000" width="270.900000" height="24.000000" rx="0" ry="0" style="stroke:none;fill:#cccccc;"/>
<rect x="34.000000" y="170.000000" width="270.900000" height="24.000000" rx="0" ry="0" style="stroke:none;fill:#477881;"/>
<text x="169.450000" y="184.000000" font-family="Arial" font-size="7" text-anchor="middle" fill="#FFFFFF">hslider(cutoff, 100.0f, 0.0f, 10000.0f, 0.10000000000000001f)</text>
<circle cx="36.000000" cy="172.000000" r="1"/>
<line x1="25.000000" y1="161.000000" x2="25.000000" y2="203.000000"  style="stroke: black; stroke-linecap:round; stroke-width:0.25; stroke-dasharray:3,3;"/>
<line x1="25.000000" y1="203.000000" x2="313.900000" y2="203.000000"  style="stroke: black; stroke-linecap:round; stroke-width:0.25; stroke-dasharray:3,3;"/>
<line x1="313.900000" y1="203.000000" x2="313.900000" y2="161.000000"  style="stroke: black; stroke-linecap:round; stroke-width:0.25; stroke-dasharray:3,3;"/>
<line x1="25.000000" y1="161.000000" x2="30.000000" y2="161.000000"  style="stroke: black; stroke-linecap:round; stroke-width:0.25; stroke-dasharray:3,3;"/>
<line x1="42.900000" y1="161.000000" x2="313.900000" y2="161.000000"  style="stroke: black; stroke-linecap:round; stroke-width:0.25; stroke-dasharray:3,3;"/>
<text x="30.000000" y="163.000000" font-family="Arial" font-size="7">fc</text>
<rect x="331.900000" y="129.000000" width="24.000000" height="24.000000" rx="0" ry="0" style="stroke:none;fill:#cccccc;"/>
<rect x="330.900000" y="128.000000" width="24.000000" height="24.000000" rx="0" ry="0" style="stroke:none;fill:#4B71A1;"/>
<text x="342.900000" y="142.000000" font-family="Arial" font-size="7" text-anchor="middle" fill="#FFFFFF">*</text>
<circle cx="332.900000" cy="130.000000" r="1"/>
<line x1="327.900000" y1="135.000000" x2="330.900000" y2="136.000000"  transform="rotate(0.000000,330.900000,136.000000)" style="stroke: black; stroke-width:0.25;"/>
<line x1="327.900000" y1="137.000000" x2="330.900000" y2="136.000000"  transform="rotate(0.000000,330.900000,136.000000)" style="stroke: black; stroke-width:0.25;"/>
<line x1="327.900000" y1="143.000000" x2="330.900000" y2="144.000000"  transform="rotate(0.000000,330.900000,144.000000)" style="stroke: black; stroke-width:0.25;"/>
<line x1="327.900000" y1="145.000000" x2="330.900000" y2="144.000000"  transform="rotate(0.000000,330.900000,144.000000)" style="stroke: black; stroke-width:0.25;"/>
<rect x="178.450000" y="213.000000" width="24.000000" height="24.000000" rx="0" ry="0" style="stroke:none;fill:#cccccc;"/>
<rect x="177.450000" y="212.000000" width="24.000000" height="24.000000" rx="0" ry="0" style="stroke:none;fill:#f44800;"/>
<text x="189.450000" y="226.000000" font-family="Arial" font-size="7" text-anchor="middle" fill="#FFFFFF">0.5</text>
<circle cx="179.450000" cy="214.000000" r="1"/>
<rect x="371.900000" y="145.000000" width="24.000000" height="24.000000" rx="0" ry="0" style="stroke:none;fill:#cccccc;"/>
<rect x="370.900000" y="144.000000" width="24.000000" height="24.000000" rx="0" ry="0" style="stroke:none;fill:#4B71A1;"/>
<text x="382.900000" y="158.000000" font-family="Arial" font-size="7" text-anchor="middle" fill="#FFFFFF">*</text>
<circle cx="372.900000" cy="146.000000" r="1"/>
<line x1="367.900000" y1="151.000000" x2="370.900000" y2="152.000000"  transform="rotate(0.000000,370.900000,152.000000)" style="stroke: black; stroke-width:0.25;"/>
<line x1="367.900000" y1="153.000000" x2="370.900000" y2="152.000000"  transform="rotate(0.000000,370.900000,152.000000)" style="stroke: black; stroke-width:0.25;"/>
<line x1="367.900000" y1="159.000000" x2="370.900000" y2="160.000000"  transform="rotate(0.000000,370.900000,160.000000)" style="stroke: black; stroke-width:0.25;"/>
<line x1="367.900000" y1="161.000000" x2="370.900000" y2="160.000000"  transform="rotate(0.000000,370.900000,160.000000)" style="stroke: black; stroke-width:0.25;"/>
<a xlink:href="SR-0x7f3bb41b55a0.svg">
<rect x="198.450000" y="245.000000" width="24.000000" height="24.000000" rx="0" ry="0" style="stroke:none;fill:#cccccc;"/>
<rect x="197.450000" y="244.000000" width="24.000000" height="24.000000" rx="0" ry="0" style="stroke:none;fill:#003366;"/>
</a>
<a xlink:href="SR-0x7f3bb41b55a0.svg">
<text x="209.450000" y="258.000000" font-family="Arial" font-size="7" text-anchor="middle" fill="#FFFFFF">SR</text>
</a>
<circle cx="199.450000" cy="246.000000" r="1"/>
<rect x="411.900000" y="161.000000" width="24.000000" height="24.000000" rx="0" ry="0" style="stroke:none;fill:#cccccc;"/>
<rect x="410.900000" y="160.000000" width="24.000000" height="24.000000" rx="0" ry="0" style="stroke:none;fill:#4B71A1;"/>
<text x="422.900000" y="174.000000" font-family="Arial" font-size="7" text-anchor="middle" fill="#FFFFFF">/</text>
<circle cx="412.900000" cy="162.000000" r="1"/>
<line x1="407.900000" y1="167.000000" x2="410.900000" y2="168.000000"  transform="rotate(0.000000,410.900000,168.000000)" style="stroke: black; stroke-width:0.25;"/>
<line x1="407.900000" y1="169.000000" x2="410.900000" y2="168.000000"  transform="rotate(0.000000,410.900000,168.000000)" style="stroke: black; stroke-width:0.25;"/>
<line x1="407.900000" y1="175.000000" x2="410.900000" y2="176.000000"  transform="rotate(0.000000,410.900000,176.000000)" style="stroke: black; stroke-width:0.25;"/>
<line x1="407.900000" y1="177.000000" x2="410.900000" y2="176.000000"  transform="rotate(0.000000,410.900000,176.000000)" style="stroke: black; stroke-width:0.25;"/>
<rect x="443.900000" y="161.000000" width="24.000000" height="24.000000" rx="0" ry="0" style="stroke:none;fill:#cccccc;"/>
<rect x="442.900000" y="160.000000" width="24.000000" height="24.000000" rx="0" ry="0" style="stroke:none;fill:#4B71A1;"/>
<text x="454.900000" y="174.000000" font-family="Arial" font-size="7" text-anchor="middle" fill="#FFFFFF">tan</text>
<circle cx="444.900000" cy="162.000000" r="1"/>
<line x1="439.900000" y1="171.000000" x2="442.900000" y2="172.000000"  transform="rotate(0.000000,442.900000,172.000000)" style="stroke: black; stroke-width:0.25;"/>
<line x1="439.900000" y1="173.000000" x2="442.900000" y2="172.000000"  transform="rotate(0.000000,442.900000,172.000000)" style="stroke: black; stroke-width:0.25;"/>
<rect x="483.900000" y="135.000000" width="24.000000" height="24.000000" rx="0" ry="0" style="stroke:none;fill:#cccccc;"/>
<rect x="482.900000" y="134.000000" width="24.000000" height="24.000000" rx="0" ry="0" style="stroke:none;fill:#4B71A1;"/>
<text x="494.900000" y="148.000000" font-family="Arial" font-size="7" text-anchor="middle" fill="#FFFFFF">/</text>
<circle cx="484.900000" cy="136.000000" r="1"/>
<line x1="479.900000" y1="141.000000" x2="482.900000" y2="142.000000"  transform="rotate(0.000000,482.900000,142.000000)" style="stroke: black; stroke-width:0.25;"/>
<line x1="479.900000" y1="143.000000" x2="482.900000" y2="142.000000"  transform="rotate(0.000000,482.900000,142.000000)" style="stroke: black; stroke-width:0.25;"/>
<line x1="479.900000" y1="149.000000" x2="482.900000" y2="150.000000"  transform="rotate(0.000000,482.900000,150.000000)" style="stroke: black; stroke-width:0.25;"/>
<line x1="479.900000" y1="151.000000" x2="482.900000" y2="150.000000"  transform="rotate(0.000000,482.900000,150.000000)" style="stroke: black; stroke-width:0.25;"/>
<line x1="15.000000" y1="15.000000" x2="15.000000" y2="277.000000"  style="stroke: black; stroke-linecap:round; stroke-width:0.25; stroke-dasharray:3,3;"/>
<line x1="15.000000" y1="277.000000" x2="523.900000" y2="277.000000"  style="stroke: black; stroke-linecap:round; stroke-width:0.25; stroke-dasharray:3,3;"/>
<line x1="523.900000" y1="277.000000" x2="523.900000" y2="15.000000"  style="stroke: black; stroke-linecap:round; stroke-width:0.25; stroke-dasharray:3,3;"/>
<line x1="15.000000" y1="15.000000" x2="20.000000" y2="15.000000"  style="stroke: black; stroke-linecap:round; stroke-width:0.25; stroke-dasharray:3,3;"/>
<line x1="29.675000" y1="15.000000" x2="523.900000" y2="15.000000"  style="stroke: black; stroke-linecap:round; stroke-width:0.25; stroke-dasharray:3,3;"/>
<text x="20.000000" y="17.000000" font-family="Arial" font-size="7">c</text>
<line x1="525.900000" y1="145.000000" x2="528.900000" y2="146.000000"  transform="rotate(0.000000,528.900000,146.000000)" style="stroke: black; stroke-width:0.25;"/>
<line x1="525.900000" y1="147.000000" x2="528.900000" y2="146.000000"  transform="rotate(0.000000,528.900000,146.000000)" style="stroke: black; stroke-width:0.25;"/>
<line x1="161.450000" y1="88.000000" x2="165.450000" y2="88.000000"  style="stroke:black; stroke-linecap:round; stroke-width:0.25;"/>
<line x1="165.450000" y1="88.000000" x2="182.800000" y2="88.000000"  style="stroke:black; stroke-linecap:round; stroke-width:0.25;"/>
<line x1="168.800000" y1="130.000000" x2="172.800000" y2="130.000000"  style="stroke:black; stroke-linecap:round; stroke-width:0.25;"/>
<line x1="172.800000" y1="130.000000" x2="182.800000" y2="130.000000"  style="stroke:black; stroke-linecap:round; stroke-width:0.25;"/>
<line x1="182.800000" y1="88.000000" x2="190.800000" y2="88.000000"  style="stroke:black; stroke-linecap:round; stroke-width:0.25;"/>
<line x1="182.800000" y1="118.000000" x2="190.800000" y2="118.000000"  style="stroke:black; stroke-linecap:round; stroke-width:0.25;"/>
<line x1="182.800000" y1="130.000000" x2="182.800000" y2="118.000000"  style="stroke:black; stroke-linecap:round; stroke-width:0.25;"/>
<line x1="182.800000" y1="130.000000" x2="182.800000" y2="130.000000"  style="stroke:black; stroke-linecap:round; stroke-width:0.25;"/>
<line x1="190.800000" y1="88.000000" x2="190.800000" y2="110.000000"  style="stroke:black; stroke-linecap:round; stroke-width:0.25;"/>
<line x1="190.800000" y1="110.000000" x2="190.800000" y2="110.000000"  style="stroke:black; stroke-linecap:round; stroke-width:0.25;"/>
<line x1="190.800000" y1="110.000000" x2="194.800000" y2="110.000000"  style="stroke:black; stroke-linecap:round; stroke-width:0.25;"/>
<line x1="190.800000" y1="118.000000" x2="194.800000" y2="118.000000"  style="stroke:black; stroke-linecap:round; stroke-width:0.25;"/>
<line x1="201.450000" y1="224.000000" x2="205.450000" y2="224.000000"  style="stroke:black; stroke-linecap:round; stroke-width:0.25;"/>
<line x1="205.450000" y1="224.000000" x2="358.900000" y2="224.000000"  style="stroke:black; stroke-linecap:round; stroke-width:0.25;"/>
<line x1="218.800000" y1="114.000000" x2="222.800000" y2="114.000000"  style="stroke:black; stroke-linecap:round; stroke-width:0.25;"/>
<line x1="221.450000" y1="256.000000" x2="225.450000" y2="256.000000"  style="stroke:black; stroke-linecap:round; stroke-width:0.25;"/>
<line x1="222.800000" y1="114.000000" x2="318.900000" y2="114.000000"  style="stroke:black; stroke-linecap:round; stroke-width:0.25;"/>
<line x1="225.450000" y1="256.000000" x2="398.900000" y2="256.000000"  style="stroke:black; stroke-linecap:round; stroke-width:0.25;"/>
<line x1="257.450000" y1="46.000000" x2="261.450000" y2="46.000000"  style="stroke:black; stroke-linecap:round; stroke-width:0.25;"/>
<line x1="261.450000" y1="46.000000" x2="271.450000" y2="46.000000"  style="stroke:black; stroke-linecap:round; stroke-width:0.25;"/>
<line x1="271.450000" y1="46.000000" x2="470.900000" y2="46.000000"  style="stroke:black; stroke-linecap:round; stroke-width:0.25;"/>
<line x1="304.900000" y1="182.000000" x2="308.900000" y2="182.000000"  style="stroke:black; stroke-linecap:round; stroke-width:0.25;"/>
<line x1="308.900000" y1="182.000000" x2="318.900000" y2="182.000000"  style="stroke:black; stroke-linecap:round; stroke-width:0.25;"/>
<line x1="318.900000" y1="114.000000" x2="326.900000" y2="114.000000"  style="stroke:black; stroke-linecap:round; stroke-width:0.25;"/>
<line x1="318.900000" y1="144.000000" x2="326.900000" y2="144.000000"  style="stroke:black; stroke-linecap:round; stroke-width:0.25;"/>
<line x1="318.900000" y1="182.000000" x2="318.900000" y2="144.000000"  style="stroke:black; stroke-linecap:round; stroke-width:0.25;"/>
<line x1="318.900000" y1="182.000000" x2="318.900000" y2="182.000000"  style="stroke:black; stroke-linecap:round; stroke-width:0.25;"/>
<line x1="326.900000" y1="114.000000" x2="326.900000" y2="136.000000"  style="stroke:black; stroke-linecap:round; stroke-width:0.25;"/>
<line x1="326.900000" y1="136.000000" x2="326.900000" y2="136.000000"  style="stroke:black; stroke-linecap:round; stroke-width:0.25;"/>
<line x1="326.900000" y1="136.000000" x2="330.900000" y2="136.000000"  style="stroke:black; stroke-linecap:round; stroke-width:0.25;"/>
<line x1="326.900000" y1="144.000000" x2="330.900000" y2="144.000000"  style="stroke:black; stroke-linecap:round; stroke-width:0.25;"/>
<line x1="354.900000" y1="140.000000" x2="358.900000" y2="140.000000"  style="stroke:black; stroke-linecap:round; stroke-width:0.25;"/>
<line x1="358.900000" y1="140.000000" x2="366.900000" y2="140.000000"  style="stroke:black; stroke-linecap:round; stroke-width:0.25;"/>
<line x1="358.900000" y1="160.000000" x2="366.900000" y2="160.000000"  style="stroke:black; stroke-linecap:round; stroke-width:0.25;"/>
<line x1="358.900000" y1="224.000000" x2="358.900000" y2="160.000000"  style="stroke:black; stroke-linecap:round; stroke-width:0.25;"/>
<line x1="358.900000" y1="224.000000" x2="358.900000" y2="224.000000"  style="stroke:black; stroke-linecap:round; stroke-width:0.25;"/>
<line x1="366.900000" y1="140.000000" x2="366.900000" y2="152.000000"  style="stroke:black; stroke-linecap:round; stroke-width:0.25;"/>
<line x1="366.900000" y1="152.000000" x2="366.900000" y2="152.000000"  style="stroke:black; stroke-linecap:round; stroke-width:0.25;"/>
<line x1="366.900000" y1="152.000000" x2="370.900000" y2="152.000000"  style="stroke:black; stroke-linecap:round; stroke-width:0.25;"/>
<line x1="366.900000" y1="160.000000" x2="370.900000" y2="160.000000"  style="stroke:black; stroke-linecap:round; stroke-width:0.25;"/>
<line x1="394.900000" y1="156.000000" x2="398.900000" y2="156.000000"  style="stroke:black; stroke-linecap:round; stroke-width:0.25;"/>
<line x1="398.900000" y1="156.000000" x2="406.900000" y2="156.000000"  style="stroke:black; stroke-linecap:round; stroke-width:0.25;"/>
<line x1="398.900000" y1="176.000000" x2="406.900000" y2="176.000000"  style="stroke:black; stroke-linecap:round; stroke-width:0.25;"/>
<line x1="398.900000" y1="256.000000" x2="398.900000" y2="176.000000"  style="stroke:black; stroke-linecap:round; stroke-width:0.25;"/>
<line x1="398.900000" y1="256.000000" x2="398.900000" y2="256.000000"  style="stroke:black; stroke-linecap:round; stroke-width:0.25;"/>
<line x1="406.900000" y1="156.000000" x2="406.900000" y2="168.000000"  style="stroke:black; stroke-linecap:round; stroke-width:0.25;"/>
<line x1="406.900000" y1="168.000000" x2="406.900000" y2="168.000000"  style="stroke:black; stroke-linecap:round; stroke-width:0.25;"/>
<line x1="406.900000" y1="168.000000" x2="410.900000" y2="168.000000"  style="stroke:black; stroke-linecap:round; stroke-width:0.25;"/>
<line x1="406.900000" y1="176.000000" x2="410.900000" y2="176.000000"  style="stroke:black; stroke-linecap:round; stroke-width:0.25;"/>
<line x1="434.900000" y1="172.000000" x2="438.900000" y2="172.000000"  style="stroke:black; stroke-linecap:round; stroke-width:0.25;"/>
<line x1="438.900000" y1="172.000000" x2="438.900000" y2="172.000000"  style="stroke:black; stroke-linecap:round; stroke-width:0.25;"/>
<line x1="438.900000" y1="172.000000" x2="442.900000" y2="172.000000"  style="stroke:black; stroke-linecap:round; stroke-width:0.25;"/>
<line x1="466.900000" y1="172.000000" x2="470.900000" y2="172.000000"  style="stroke:black; stroke-linecap:round; stroke-width:0.25;"/>
<line x1="470.900000" y1="46.000000" x2="478.900000" y2="46.000000"  style="stroke:black; stroke-linecap:round; stroke-width:0.25;"/>
<line x1="470.900000" y1="150.000000" x2="478.900000" y2="150.000000"  style="stroke:black; stroke-linecap:round; stroke-width:0.25;"/>
<line x1="470.900000" y1="172.000000" x2="470.900000" y2="150.000000"  style="stroke:black; stroke-linecap:round; stroke-width:0.25;"/>
<line x1="470.900000" y1="172.000000" x2="470.900000" y2="172.000000"  style="stroke:black; stroke-linecap:round; stroke-width:0.25;"/>
<line x1="478.900000" y1="46.000000" x2="478.900000" y2="142.000000"  style="stroke:black; stroke-linecap:round; stroke-width:0.25;"/>
<line x1="478.900000" y1="142.000000" x2="478.900000" y2="142.000000"  style="stroke:black; stroke-linecap:round; stroke-width:0.25;"/>
<line x1="478.900000" y1="142.000000" x2="482.900000" y2="142.000000"  style="stroke:black; stroke-linecap:round; stroke-width:0.25;"/>
<line x1="478.900000" y1="150.000000" x2="482.900000" y2="150.000000"  style="stroke:black; stroke-linecap:round; stroke-width:0.25;"/>
<line x1="506.900000" y1="146.000000" x2="510.900000" y2="146.000000"  style="stroke:black; stroke-linecap:round; stroke-width:0.25;"/>
<line x1="510.900000" y1="146.000000" x2="510.900000" y2="146.000000"  style="stroke:black; stroke-linecap:round; stroke-width:0.25;"/>
<line x1="510.900000" y1="146.000000" x2="514.900000" y2="146.000000"  style="stroke:black; stroke-linecap:round; stroke-width:0.25;"/>
<line x1="514.900000" y1="146.000000" x2="518.900000" y2="146.000000"  style="stroke:black; stroke-linecap:round; stroke-width:0.25;"/>
<line x1="518.900000" y1="146.000000" x2="528.900000" y2="146.000000"  style="stroke:black; stroke-linecap:round; stroke-width:0.25;"/>
</svg>
