<?xml version="1.0"?>
<svg xmlns="http://www.w3.org/2000/svg" xmlns:xlink="http://www.w3.org/1999/xlink" viewBox="0 0 439.800000 208.000000" width="219.900000mm" height="104.000000mm" version="1.1">
<a xlink:href="c-0x7f96c4216f50.svg">
<rect x="1.000000" y="1.000000" width="438.800000" height="207.000000" rx="0" ry="0" style="stroke:none;fill:#cccccc;"/>
<rect x="0.000000" y="0.000000" width="438.800000" height="207.000000" rx="0" ry="0" style="stroke:none;fill:#ffffff;"/>
</a>
<text x="10.000000" y="7.000000" font-family="Arial" font-size="7"></text>
<rect x="144.900000" y="25.000000" width="24.000000" height="24.000000" rx="0" ry="0" style="stroke:none;fill:#cccccc;"/>
<rect x="143.900000" y="24.000000" width="24.000000" height="24.000000" rx="0" ry="0" style="stroke:none;fill:#f44800;"/>
<text x="155.900000" y="38.000000" font-family="Arial" font-size="7" text-anchor="middle" fill="#FFFFFF">2</text>
<circle cx="145.900000" cy="26.000000" r="1"/>
<rect x="137.550000" y="67.000000" width="38.700000" height="24.000000" rx="0" ry="0" style="stroke:none;fill:#cccccc;"/>
<rect x="136.550000" y="66.000000" width="38.700000" height="24.000000" rx="0" ry="0" style="stroke:none;fill:#f44800;"/>
<text x="155.900000" y="80.000000" font-family="Arial" font-size="7" text-anchor="middle" fill="#FFFFFF">3.14159</text>
<circle cx="138.550000" cy="68.000000" r="1"/>
<line x1="127.550000" y1="57.000000" x2="127.550000" y2="99.000000"  style="stroke: black; stroke-linecap:round; stroke-width:0.25; stroke-dasharray:3,3;"/>
<line x1="127.550000" y1="99.000000" x2="184.250000" y2="99.000000"  style="stroke: black; stroke-linecap:round; stroke-width:0.25; stroke-dasharray:3,3;"/>
<line x1="184.250000" y1="99.000000" x2="184.250000" y2="57.000000"  style="stroke: black; stroke-linecap:round; stroke-width:0.25; stroke-dasharray:3,3;"/>
<line x1="127.550000" y1="57.000000" x2="132.550000" y2="57.000000"  style="stroke: black; stroke-linecap:round; stroke-width:0.25; stroke-dasharray:3,3;"/>
<line x1="145.450000" y1="57.000000" x2="184.250000" y2="57.000000"  style="stroke: black; stroke-linecap:round; stroke-width:0.25; stroke-dasharray:3,3;"/>
<text x="132.550000" y="59.000000" font-family="Arial" font-size="7">PI</text>
<rect x="202.250000" y="51.000000" width="24.000000" height="24.000000" rx="0" ry="0" style="stroke:none;fill:#cccccc;"/>
<rect x="201.250000" y="50.000000" width="24.000000" height="24.000000" rx="0" ry="0" style="stroke:none;fill:#4B71A1;"/>
<text x="213.250000" y="64.000000" font-family="Arial" font-size="7" text-anchor="middle" fill="#FFFFFF">*</text>
<circle cx="203.250000" cy="52.000000" r="1"/>
<line x1="198.250000" y1="57.000000" x2="201.250000" y2="58.000000"  transform="rotate(0.000000,201.250000,58.000000)" style="stroke: black; stroke-width:0.25;"/>
<line x1="198.250000" y1="59.000000" x2="201.250000" y2="58.000000"  transform="rotate(0.000000,201.250000,58.000000)" style="stroke: black; stroke-width:0.25;"/>
<line x1="198.250000" y1="65.000000" x2="201.250000" y2="66.000000"  transform="rotate(0.000000,201.250000,66.000000)" style="stroke: black; stroke-width:0.25;"/>
<line x1="198.250000" y1="67.000000" x2="201.250000" y2="66.000000"  transform="rotate(0.000000,201.250000,66.000000)" style="stroke: black; stroke-width:0.25;"/>
<rect x="35.000000" y="119.000000" width="283.800000" height="24.000000" rx="0" ry="0" style="stroke:none;fill:#cccccc;"/>
<rect x="34.000000" y="118.000000" width="283.800000" height="24.000000" rx="0" ry="0" style="stroke:none;fill:#477881;"/>
<text x="175.900000" y="132.000000" font-family="Arial" font-size="7" text-anchor="middle" fill="#FFFFFF">hslider(myFreqPar, 100.0f, 10.0f, 1000.0f, 0.10000000000000001f)</text>
<circle cx="36.000000" cy="120.000000" r="1"/>
<line x1="25.000000" y1="109.000000" x2="25.000000" y2="151.000000"  style="stroke: black; stroke-linecap:round; stroke-width:0.25; stroke-dasharray:3,3;"/>
<line x1="25.000000" y1="151.000000" x2="326.800000" y2="151.000000"  style="stroke: black; stroke-linecap:round; stroke-width:0.25; stroke-dasharray:3,3;"/>
<line x1="326.800000" y1="151.000000" x2="326.800000" y2="109.000000"  style="stroke: black; stroke-linecap:round; stroke-width:0.25; stroke-dasharray:3,3;"/>
<line x1="25.000000" y1="109.000000" x2="30.000000" y2="109.000000"  style="stroke: black; stroke-linecap:round; stroke-width:0.25; stroke-dasharray:3,3;"/>
<line x1="55.800000" y1="109.000000" x2="326.800000" y2="109.000000"  style="stroke: black; stroke-linecap:round; stroke-width:0.25; stroke-dasharray:3,3;"/>
<text x="30.000000" y="111.000000" font-family="Arial" font-size="7">myFreq</text>
<rect x="344.800000" y="77.000000" width="24.000000" height="24.000000" rx="0" ry="0" style="stroke:none;fill:#cccccc;"/>
<rect x="343.800000" y="76.000000" width="24.000000" height="24.000000" rx="0" ry="0" style="stroke:none;fill:#4B71A1;"/>
<text x="355.800000" y="90.000000" font-family="Arial" font-size="7" text-anchor="middle" fill="#FFFFFF">*</text>
<circle cx="345.800000" cy="78.000000" r="1"/>
<line x1="340.800000" y1="83.000000" x2="343.800000" y2="84.000000"  transform="rotate(0.000000,343.800000,84.000000)" style="stroke: black; stroke-width:0.25;"/>
<line x1="340.800000" y1="85.000000" x2="343.800000" y2="84.000000"  transform="rotate(0.000000,343.800000,84.000000)" style="stroke: black; stroke-width:0.25;"/>
<line x1="340.800000" y1="91.000000" x2="343.800000" y2="92.000000"  transform="rotate(0.000000,343.800000,92.000000)" style="stroke: black; stroke-width:0.25;"/>
<line x1="340.800000" y1="93.000000" x2="343.800000" y2="92.000000"  transform="rotate(0.000000,343.800000,92.000000)" style="stroke: black; stroke-width:0.25;"/>
<a xlink:href="SR-0x7f96c4212920.svg">
<rect x="184.900000" y="161.000000" width="24.000000" height="24.000000" rx="0" ry="0" style="stroke:none;fill:#cccccc;"/>
<rect x="183.900000" y="160.000000" width="24.000000" height="24.000000" rx="0" ry="0" style="stroke:none;fill:#003366;"/>
</a>
<a xlink:href="SR-0x7f96c4212920.svg">
<text x="195.900000" y="174.000000" font-family="Arial" font-size="7" text-anchor="middle" fill="#FFFFFF">SR</text>
</a>
<circle cx="185.900000" cy="162.000000" r="1"/>
<rect x="384.800000" y="93.000000" width="24.000000" height="24.000000" rx="0" ry="0" style="stroke:none;fill:#cccccc;"/>
<rect x="383.800000" y="92.000000" width="24.000000" height="24.000000" rx="0" ry="0" style="stroke:none;fill:#4B71A1;"/>
<text x="395.800000" y="106.000000" font-family="Arial" font-size="7" text-anchor="middle" fill="#FFFFFF">/</text>
<circle cx="385.800000" cy="94.000000" r="1"/>
<line x1="380.800000" y1="99.000000" x2="383.800000" y2="100.000000"  transform="rotate(0.000000,383.800000,100.000000)" style="stroke: black; stroke-width:0.25;"/>
<line x1="380.800000" y1="101.000000" x2="383.800000" y2="100.000000"  transform="rotate(0.000000,383.800000,100.000000)" style="stroke: black; stroke-width:0.25;"/>
<line x1="380.800000" y1="107.000000" x2="383.800000" y2="108.000000"  transform="rotate(0.000000,383.800000,108.000000)" style="stroke: black; stroke-width:0.25;"/>
<line x1="380.800000" y1="109.000000" x2="383.800000" y2="108.000000"  transform="rotate(0.000000,383.800000,108.000000)" style="stroke: black; stroke-width:0.25;"/>
<line x1="15.000000" y1="15.000000" x2="15.000000" y2="193.000000"  style="stroke: black; stroke-linecap:round; stroke-width:0.25; stroke-dasharray:3,3;"/>
<line x1="15.000000" y1="193.000000" x2="424.800000" y2="193.000000"  style="stroke: black; stroke-linecap:round; stroke-width:0.25; stroke-dasharray:3,3;"/>
<line x1="424.800000" y1="193.000000" x2="424.800000" y2="15.000000"  style="stroke: black; stroke-linecap:round; stroke-width:0.25; stroke-dasharray:3,3;"/>
<line x1="15.000000" y1="15.000000" x2="20.000000" y2="15.000000"  style="stroke: black; stroke-linecap:round; stroke-width:0.25; stroke-dasharray:3,3;"/>
<line x1="32.900000" y1="15.000000" x2="424.800000" y2="15.000000"  style="stroke: black; stroke-linecap:round; stroke-width:0.25; stroke-dasharray:3,3;"/>
<text x="20.000000" y="17.000000" font-family="Arial" font-size="7">th</text>
<line x1="426.800000" y1="103.000000" x2="429.800000" y2="104.000000"  transform="rotate(0.000000,429.800000,104.000000)" style="stroke: black; stroke-width:0.25;"/>
<line x1="426.800000" y1="105.000000" x2="429.800000" y2="104.000000"  transform="rotate(0.000000,429.800000,104.000000)" style="stroke: black; stroke-width:0.25;"/>
<line x1="167.900000" y1="36.000000" x2="171.900000" y2="36.000000"  style="stroke:black; stroke-linecap:round; stroke-width:0.25;"/>
<line x1="171.900000" y1="36.000000" x2="189.250000" y2="36.000000"  style="stroke:black; stroke-linecap:round; stroke-width:0.25;"/>
<line x1="175.250000" y1="78.000000" x2="179.250000" y2="78.000000"  style="stroke:black; stroke-linecap:round; stroke-width:0.25;"/>
<line x1="179.250000" y1="78.000000" x2="189.250000" y2="78.000000"  style="stroke:black; stroke-linecap:round; stroke-width:0.25;"/>
<line x1="189.250000" y1="36.000000" x2="197.250000" y2="36.000000"  style="stroke:black; stroke-linecap:round; stroke-width:0.25;"/>
<line x1="189.250000" y1="66.000000" x2="197.250000" y2="66.000000"  style="stroke:black; stroke-linecap:round; stroke-width:0.25;"/>
<line x1="189.250000" y1="78.000000" x2="189.250000" y2="66.000000"  style="stroke:black; stroke-linecap:round; stroke-width:0.25;"/>
<line x1="189.250000" y1="78.000000" x2="189.250000" y2="78.000000"  style="stroke:black; stroke-linecap:round; stroke-width:0.25;"/>
<line x1="197.250000" y1="36.000000" x2="197.250000" y2="58.000000"  style="stroke:black; stroke-linecap:round; stroke-width:0.25;"/>
<line x1="197.250000" y1="58.000000" x2="197.250000" y2="58.000000"  style="stroke:black; stroke-linecap:round; stroke-width:0.25;"/>
<line x1="197.250000" y1="58.000000" x2="201.250000" y2="58.000000"  style="stroke:black; stroke-linecap:round; stroke-width:0.25;"/>
<line x1="197.250000" y1="66.000000" x2="201.250000" y2="66.000000"  style="stroke:black; stroke-linecap:round; stroke-width:0.25;"/>
<line x1="207.900000" y1="172.000000" x2="211.900000" y2="172.000000"  style="stroke:black; stroke-linecap:round; stroke-width:0.25;"/>
<line x1="211.900000" y1="172.000000" x2="371.800000" y2="172.000000"  style="stroke:black; stroke-linecap:round; stroke-width:0.25;"/>
<line x1="225.250000" y1="62.000000" x2="229.250000" y2="62.000000"  style="stroke:black; stroke-linecap:round; stroke-width:0.25;"/>
<line x1="229.250000" y1="62.000000" x2="331.800000" y2="62.000000"  style="stroke:black; stroke-linecap:round; stroke-width:0.25;"/>
<line x1="317.800000" y1="130.000000" x2="321.800000" y2="130.000000"  style="stroke:black; stroke-linecap:round; stroke-width:0.25;"/>
<line x1="321.800000" y1="130.000000" x2="331.800000" y2="130.000000"  style="stroke:black; stroke-linecap:round; stroke-width:0.25;"/>
<line x1="331.800000" y1="62.000000" x2="339.800000" y2="62.000000"  style="stroke:black; stroke-linecap:round; stroke-width:0.25;"/>
<line x1="331.800000" y1="92.000000" x2="339.800000" y2="92.000000"  style="stroke:black; stroke-linecap:round; stroke-width:0.25;"/>
<line x1="331.800000" y1="130.000000" x2="331.800000" y2="92.000000"  style="stroke:black; stroke-linecap:round; stroke-width:0.25;"/>
<line x1="331.800000" y1="130.000000" x2="331.800000" y2="130.000000"  style="stroke:black; stroke-linecap:round; stroke-width:0.25;"/>
<line x1="339.800000" y1="62.000000" x2="339.800000" y2="84.000000"  style="stroke:black; stroke-linecap:round; stroke-width:0.25;"/>
<line x1="339.800000" y1="84.000000" x2="339.800000" y2="84.000000"  style="stroke:black; stroke-linecap:round; stroke-width:0.25;"/>
<line x1="339.800000" y1="84.000000" x2="343.800000" y2="84.000000"  style="stroke:black; stroke-linecap:round; stroke-width:0.25;"/>
<line x1="339.800000" y1="92.000000" x2="343.800000" y2="92.000000"  style="stroke:black; stroke-linecap:round; stroke-width:0.25;"/>
<line x1="367.800000" y1="88.000000" x2="371.800000" y2="88.000000"  style="stroke:black; stroke-linecap:round; stroke-width:0.25;"/>
<line x1="371.800000" y1="88.000000" x2="379.800000" y2="88.000000"  style="stroke:black; stroke-linecap:round; stroke-width:0.25;"/>
<line x1="371.800000" y1="108.000000" x2="379.800000" y2="108.000000"  style="stroke:black; stroke-linecap:round; stroke-width:0.25;"/>
<line x1="371.800000" y1="172.000000" x2="371.800000" y2="108.000000"  style="stroke:black; stroke-linecap:round; stroke-width:0.25;"/>
<line x1="371.800000" y1="172.000000" x2="371.800000" y2="172.000000"  style="stroke:black; stroke-linecap:round; stroke-width:0.25;"/>
<line x1="379.800000" y1="88.000000" x2="379.800000" y2="100.000000"  style="stroke:black; stroke-linecap:round; stroke-width:0.25;"/>
<line x1="379.800000" y1="100.000000" x2="379.800000" y2="100.000000"  style="stroke:black; stroke-linecap:round; stroke-width:0.25;"/>
<line x1="379.800000" y1="100.000000" x2="383.800000" y2="100.000000"  style="stroke:black; stroke-linecap:round; stroke-width:0.25;"/>
<line x1="379.800000" y1="108.000000" x2="383.800000" y2="108.000000"  style="stroke:black; stroke-linecap:round; stroke-width:0.25;"/>
<line x1="407.800000" y1="104.000000" x2="411.800000" y2="104.000000"  style="stroke:black; stroke-linecap:round; stroke-width:0.25;"/>
<line x1="411.800000" y1="104.000000" x2="411.800000" y2="104.000000"  style="stroke:black; stroke-linecap:round; stroke-width:0.25;"/>
<line x1="411.800000" y1="104.000000" x2="415.800000" y2="104.000000"  style="stroke:black; stroke-linecap:round; stroke-width:0.25;"/>
<line x1="415.800000" y1="104.000000" x2="419.800000" y2="104.000000"  style="stroke:black; stroke-linecap:round; stroke-width:0.25;"/>
<line x1="419.800000" y1="104.000000" x2="429.800000" y2="104.000000"  style="stroke:black; stroke-linecap:round; stroke-width:0.25;"/>
</svg>
